<?xml version="1.0" encoding="utf-8"?>
<!DOCTYPE svg PUBLIC "-//W3C//DTD SVG 1.0//EN" "http://www.w3.org/TR/2001/REC-SVG-20010904/DTD/svg10.dtd">
<svg version="1.0" xmlns="http://www.w3.org/2000/svg" width="1536px" height="1024px" viewBox="0 0 1536 1024" preserveAspectRatio="xMidYMid meet">
 <g fill="#000000">
  <path d="M551.63 702.65 c-3.20 -0.74 -6.89 -2.95 -9.48 -5.54 -4.18 -4.06 -4.31 -4.55 -4.31 -13.54 0 -8.98 0.12 -9.48 4.06 -13.42 5.29 -5.29 12.55 -7.14 24 -6.52 11.32 0.74 15.51 3.45 16 10.09 0.25 3.32 -0.25 5.17 -1.85 6.40 -2.95 2.22 -11.45 2.09 -14.40 -0.12 -3.20 -2.46 -4.80 -2.34 -8.25 0.49 -2.83 2.34 -2.95 2.34 -0.62 4.92 2.71 3.08 7.14 3.32 9.35 0.74 1.85 -2.22 9.72 -2.46 14.15 -0.37 2.46 1.11 3.08 2.22 3.08 6.03 0 4.18 -0.49 5.05 -5.17 7.75 -6.15 3.57 -18.34 5.05 -26.58 3.08z"/>
  <path d="M600.62 683.69 l0 -19.08 8 0 8 0 0 11.69 0 11.69 9.85 0 9.85 0 0 7.38 0 7.38 -17.85 0 -17.85 0 0 -19.08z"/>
  <path d="M655.63 701.91 c-1.11 -0.98 -1.11 -32.74 -0.12 -35.32 0.62 -1.72 3.45 -1.97 18.58 -1.97 l17.97 0 -0.86 11.69 c-0.62 8 -0.49 11.69 0.37 11.69 0.86 0 1.35 2.95 1.35 7.38 l0 7.38 -18.22 0 c-10.09 0 -18.71 -0.37 -19.08 -0.86z"/>
  <path d="M710.15 698.83 c0 -2.58 2.83 -9.60 7.63 -19.08 l7.75 -15.14 9.23 0 9.23 0 7.75 15.14 c4.80 9.48 7.63 16.49 7.63 19.08 l0 3.94 -8.37 0 c-7.88 0 -8.62 -0.25 -9.85 -3.08 -1.23 -2.58 -2.34 -3.08 -6.40 -3.08 -4.18 0 -5.17 0.49 -6.15 3.08 -1.11 2.83 -1.72 3.08 -9.85 3.08 l-8.62 0 0 -3.94z"/>
  <path d="M779.08 683.69 l0 -19.08 16.74 0 16.74 0 3.57 3.57 c3.08 3.08 3.57 4.55 3.57 10.22 0 3.69 -0.86 7.51 -1.85 8.86 -1.48 1.97 -1.48 2.58 0 4.92 0.98 1.35 1.85 4.31 1.85 6.52 l0 4.06 -8.86 0 c-8.98 0 -8.98 0 -12.06 -4.55 l-3.08 -4.55 -0.37 4.55 -0.37 4.55 -8 0 -7.88 0 0 -19.08z"/>
  <path d="M839.38 683.69 l0 -19.08 8 0 8 0 0 19.08 0 19.08 -8 0 -8 0 0 -19.08z"/>
  <path d="M877.54 683.69 l0 -19.08 8.62 0 c8.49 0 8.62 0 13.42 5.29 l4.92 5.17 0.12 -5.17 0 -5.29 8 0 8 0 0 19.08 0 19.08 -8.12 0 c-8.12 0 -8.12 0 -13.42 -5.78 l-5.42 -5.91 -0.12 5.91 0 5.78 -8 0 -8 0 0 -19.08z"/>
  <path d="M949.54 701.05 c-6.77 -3.08 -9.48 -7.14 -10.09 -15.75 -0.62 -9.72 1.85 -15.14 8.62 -18.58 5.78 -2.95 19.32 -4.06 26.09 -2.22 9.11 2.46 9.35 2.95 10.09 18.83 l0.74 14.28 -5.05 2.58 c-4.06 2.09 -7.26 2.58 -15.88 2.58 -6.28 -0.12 -12.43 -0.74 -14.52 -1.72z"/>
  <path d="M571.32 634.46 c-15.38 -3.45 -26.71 -12.80 -29.91 -24.37 -1.85 -6.89 -0.86 -23.88 1.72 -28.68 4.80 -9.23 15.51 -16.25 29.17 -19.08 3.82 -0.74 13.05 -1.23 21.54 -0.86 12.55 0.37 15.75 0.98 21.54 3.57 8.98 4.18 14.77 10.22 14.77 15.38 0 3.57 -0.74 4.43 -7.02 7.75 -8.74 4.80 -11.69 4.80 -17.48 0.12 -2.46 -2.09 -6.52 -4.31 -8.86 -4.92 -12.18 -3.57 -26.34 1.48 -30.15 10.71 -3.20 7.51 2.34 15.14 13.91 19.57 4.80 1.85 6.52 1.97 12.55 0.74 3.82 -0.86 9.23 -3.08 12.18 -5.17 6.40 -4.43 11.08 -4.68 18.95 -0.98 5.42 2.58 5.78 3.20 5.91 7.38 0 3.82 -0.86 5.42 -5.17 9.60 -7.63 7.26 -16 9.97 -32.37 10.58 -8.98 0.25 -16.25 -0.12 -21.29 -1.35z"/>
  <path d="M408.62 608.62 l0 -26.46 -13.54 0 -13.54 0 0 -9.85 0 -9.85 38.77 0 38.77 0 0 9.85 0 9.72 -13.17 0.37 -13.29 0.37 -0.37 26.22 -0.25 26.09 -11.69 0 -11.69 0 0 -26.46z"/>
  <path d="M466.46 598.77 l0 -36.31 34.46 0 34.46 0 0 9.85 0 9.85 -22.40 0.25 c-22.28 0.37 -22.52 0.37 -22.89 3.20 l-0.37 2.71 20.31 0 20.43 0 0 9.85 0 9.85 -20.31 0 -20.31 0 0 3.08 0 3.08 24 0 24 0 0 8.49 c0 13.66 3.45 12.43 -36.43 12.43 l-34.95 0 0 -36.31z"/>
  <path d="M638.77 598.77 l0 -36.43 12.06 0.37 11.94 0.37 0.37 12.68 0.37 12.55 15.88 0 16 0 0 -12.92 0 -12.92 11.69 0 11.69 0 0 36.31 0 36.31 -11.69 0 -11.69 0 0 -13.54 0 -13.54 -16 0 -15.88 0 -0.37 13.29 -0.37 13.17 -11.94 0.37 -12.06 0.37 0 -36.43z"/>
  <path d="M743.38 632.86 c-12.06 -3.20 -16.49 -6.28 -16.98 -11.32 -0.25 -3.32 0.62 -5.42 3.45 -8.86 4.80 -5.78 9.72 -6.15 19.32 -1.48 8.37 4.18 21.54 5.42 26.95 2.58 l3.57 -1.85 -3.32 -1.35 c-1.85 -0.62 -8.25 -1.85 -14.15 -2.58 -27.20 -3.45 -33.60 -8 -33.60 -23.51 0 -9.48 2.95 -14.65 10.22 -18.22 14.77 -7.14 47.63 -6.03 61.54 2.09 4.68 2.83 4.43 7.63 -0.62 13.78 -4.80 5.78 -8.98 6.28 -18.95 2.58 -8.62 -3.32 -17.48 -4.31 -22.03 -2.58 -5.29 1.97 -2.58 3.08 13.54 5.54 17.23 2.46 24 4.68 28.43 9.35 3.08 3.20 3.57 4.68 3.94 12.55 0.49 12.06 -1.72 16.25 -11.57 21.17 -6.89 3.57 -8.12 3.69 -24.49 3.94 -13.29 0.25 -19.08 -0.12 -25.23 -1.85z"/>
  <path d="M814.52 599.75 c-0.37 -19.57 -0.25 -35.94 0.37 -36.55 0.49 -0.62 13.05 -0.74 27.82 -0.49 29.17 0.74 34.71 1.72 41.23 8 7.88 7.63 7.88 26.34 0.12 33.97 -6.15 5.78 -11.94 7.38 -29.54 8 l-16.37 0.62 0 10.83 0 10.95 -11.57 0 -11.45 0 -0.62 -35.32z m45.17 -8.25 c4.92 -2.09 5.17 -2.71 2.22 -5.91 -1.60 -1.85 -3.94 -2.22 -12.92 -2.22 l-10.83 0 0 4.92 0 4.92 8.62 0 c4.80 0 10.58 -0.74 12.92 -1.72z"/>
  <path d="M897.23 598.77 l0 -36.31 34.46 0 34.46 0 0 10.46 0 10.46 -22.77 0 c-21.91 0 -22.77 0.12 -22.77 2.46 0 2.34 0.86 2.46 20.31 2.46 l20.31 0 0 9.85 0 9.85 -20.31 0 -20.31 0 0 3.08 0 3.08 24 0 24 0 0 7.75 c0 4.18 -0.37 8.86 -0.74 10.46 l-0.74 2.71 -34.95 0 -34.95 0 0 -36.31z"/>
  <path d="M979.32 634.22 c-0.49 -0.37 -0.86 -16.74 -0.86 -36.31 l0 -35.45 34.46 0 34.46 0 0 10.46 0 10.46 -22.89 0 c-21.05 0 -22.77 0.12 -22.40 2.22 0.37 1.85 2.46 2.09 20.43 2.46 l19.94 0.25 0 9.85 0 9.85 -19.69 0 -19.69 0 0 3.08 0 3.08 23.38 0 23.38 0 0 10.46 0 10.46 -34.83 0 c-19.20 0 -35.32 -0.37 -35.69 -0.86z"/>
  <path d="M1060.31 633.60 c-0.37 -0.86 -0.49 -17.11 -0.37 -36.06 l0.37 -34.46 22.77 -0.37 c12.68 -0.25 26.22 0.25 30.65 0.98 21.91 3.82 32.49 17.35 30.40 39.26 -1.35 14.77 -8.86 24.12 -23.51 29.17 -8.37 2.83 -59.32 4.18 -60.31 1.48z m47.14 -21.29 c5.66 -2.46 9.48 -5.91 11.32 -10.46 1.97 -4.68 -0.86 -10.58 -7.02 -14.77 -3.82 -2.58 -6.15 -3.20 -16 -3.45 l-11.45 -0.49 0 15.51 0 15.51 9.23 0 c5.66 0 11.08 -0.74 13.91 -1.85z"/>
  <path d="M542.77 488.12 c0 -3.45 4.43 -11.20 22.40 -39.14 38.89 -60.68 82.46 -129.11 86.89 -136.62 l2.83 -4.68 -64 0 -64.12 0 0 -4.18 c0 -2.95 3.45 -10.95 11.20 -25.85 l11.20 -21.66 246.03 0 246.03 0 0 4.06 c0 4.68 0.49 3.94 -24.25 37.42 l-6.52 8.86 -125.17 0.37 c-124.06 0.37 -125.42 0.49 -134.77 3.08 -19.08 5.42 -27.82 11.82 -39.14 28.68 -11.20 16.74 -41.35 64.37 -44.06 69.66 -4.06 8.12 -5.29 14.15 -3.82 19.57 1.85 6.40 9.11 13.54 15.51 15.26 3.69 0.98 29.66 1.35 88.12 1.11 l82.83 -0.37 5.05 -3.32 c4.92 -3.20 7.63 -7.63 5.91 -9.35 -0.49 -0.49 -27.82 -1.11 -60.68 -1.48 -67.08 -0.74 -68.43 -0.98 -77.91 -9.48 -8.74 -7.88 -10.22 -12.18 -10.71 -31.26 -0.49 -15.38 -0.25 -17.35 2.71 -26.46 7.63 -22.77 22.28 -36.31 45.91 -42.46 8.98 -2.22 14.65 -2.34 123.08 -2.34 l113.60 0 0 3.82 c0 2.71 -3.69 9.11 -13.66 24 l-13.54 20.18 -75.32 0 c-50.46 0 -76.92 0.49 -80.12 1.35 -5.66 1.60 -11.82 7.26 -11.82 10.71 0 2.46 0.98 2.58 60.80 2.95 l60.68 0.37 8.49 4.31 c7.51 3.82 8.86 5.05 11.94 11.08 4.55 8.98 5.78 24.49 2.83 38.15 -6.65 31.02 -30.40 49.97 -70.52 56 -10.09 1.60 -37.66 1.85 -172.92 1.85 l-160.98 0 0 -4.18z"/>
 </g>
 <g fill="#ffffff">
  <path d="M0 512 l0 -512 768 0 768 0 0 512 0 512 -768 0 -768 0 0 -512z m574.52 183.75 c2.83 -1.60 5.17 -3.45 5.17 -3.94 0 -0.62 -1.72 -1.72 -3.69 -2.58 -3.32 -1.35 -4.06 -1.23 -6.28 0.74 -3.69 3.32 -12.55 3.20 -16 -0.37 -3.69 -3.69 -3.69 -9.85 0 -12.92 3.57 -2.83 12.06 -2.95 16 -0.25 2.34 1.72 3.32 1.72 5.78 0.37 3.45 -1.85 3.32 -3.20 -0.86 -6.28 -7.26 -5.42 -22.03 -3.69 -29.05 3.32 -3.45 3.45 -4.06 4.92 -4.06 9.72 0 4.68 0.62 6.28 4.31 9.85 7.14 7.14 18.58 8.12 28.68 2.34z m58.09 -0.37 l0 -3.69 -9.85 0 -9.85 0 0 -11.69 0 -11.69 -4.31 0 -4.31 0 0 15.38 0 15.38 14.15 0 14.15 0 0 -3.69z m56.62 0 l0 -3.69 -10.46 0 c-9.60 0 -10.46 -0.25 -10.46 -2.46 0 -2.22 0.86 -2.46 9.23 -2.46 l9.23 0 0 -3.69 0 -3.69 -9.23 0 c-8.37 0 -9.23 -0.25 -9.23 -2.46 0 -2.22 0.86 -2.46 9.85 -2.46 9.72 0 9.85 0 9.85 -3.08 l0 -3.08 -14.03 0 c-11.69 0 -14.15 0.37 -14.77 1.97 -0.98 2.58 -0.98 26.95 0.12 27.94 0.37 0.49 7.38 0.86 15.38 0.86 l14.52 0 0 -3.69z m35.69 0.62 c1.11 -2.83 1.72 -3.08 9.85 -3.08 8 0 8.74 0.25 10.09 3.08 1.11 2.46 2.22 3.08 6.15 3.08 2.71 0 4.68 -0.49 4.43 -0.98 -0.12 -0.62 -3.69 -7.51 -7.75 -15.38 l-7.38 -14.40 -5.54 0 -5.54 0 -7.38 14.40 c-4.06 7.88 -7.51 14.77 -7.75 15.38 -0.25 0.49 1.85 0.98 4.55 0.98 4.31 0 5.29 -0.49 6.28 -3.08z m66.46 -1.85 c0 -4.68 0.25 -4.92 3.57 -4.92 2.83 0 4.43 1.11 7.14 4.92 3.08 4.43 3.94 4.92 8.74 4.92 5.78 0 5.78 -0.49 0.37 -7.26 l-2.34 -3.08 3.57 -3.57 c4.55 -4.55 4.55 -8.62 0 -13.29 -3.57 -3.45 -3.94 -3.57 -16.62 -3.57 l-13.05 0 0 15.38 0 15.38 4.31 0 c4.18 0 4.31 -0.12 4.31 -4.92z m60.31 -10.46 l0 -15.38 -4.31 0 -4.31 0 0 15.38 0 15.38 4.31 0 4.31 0 0 -15.38z m38.15 6.15 c0 -5.05 0.37 -9.23 0.98 -9.11 0.49 0 4.43 4.18 8.86 9.11 7.14 8.12 8.49 9.11 12.68 9.11 l4.55 0.12 0 -15.38 0 -15.38 -4.31 0 -4.31 0 0 8.62 c0 4.80 -0.37 8.62 -0.86 8.49 -0.62 -0.12 -4.31 -3.94 -8.37 -8.49 -6.89 -7.75 -7.75 -8.37 -12.55 -8.49 l-5.29 -0.12 0 15.38 0 15.38 4.31 0 4.31 0 0 -9.23z m86.15 6.77 c4.80 -2.46 4.92 -2.58 4.92 -9.35 l0 -6.77 -8.86 0.37 c-8.62 0.37 -8.98 0.49 -8.98 3.45 0 2.71 0.62 3.08 4.68 3.45 7.26 0.62 4.92 3.20 -3.20 3.69 -8.12 0.37 -11.94 -2.22 -11.94 -8.25 0 -7.38 9.23 -10.83 17.85 -6.77 3.94 1.85 4.31 1.85 7.02 -0.74 2.83 -2.58 2.83 -2.71 0.37 -4.43 -7.02 -5.17 -21.05 -4.80 -28.92 0.74 -9.11 6.52 -6.77 20.43 4.31 25.35 5.66 2.46 17.11 2.09 22.77 -0.74z m-366.65 -67.57 c6.03 -2.34 17.23 -11.08 17.11 -13.42 -0.12 -0.49 -2.83 -2.22 -6.03 -3.82 l-6.03 -2.83 -4.43 3.32 c-13.29 10.09 -36.80 8.49 -45.17 -3.20 -3.94 -5.54 -4.18 -16.49 -0.37 -21.54 4.06 -5.54 11.08 -8.37 21.42 -8.86 11.32 -0.62 17.72 0.98 23.26 5.66 l4.18 3.45 6.65 -3.57 c6.65 -3.57 6.65 -3.57 4.43 -6.15 -6.89 -8.25 -16.25 -12.18 -30.40 -12.92 -17.72 -0.86 -32.49 3.45 -41.11 12.06 -5.42 5.42 -7.75 10.09 -8.49 17.72 -1.72 17.35 9.97 31.14 30.65 35.82 10.09 2.34 25.48 1.60 34.34 -1.72z m-180.80 -23.75 l0.37 -26.22 13.29 -0.37 13.17 -0.37 0 -6.03 0 -6.15 -35.08 0 -35.08 0 0 6.15 0 6.15 13.54 0 13.54 0 0 26.46 0 26.46 8 0 8 0 0.25 -26.09z m104.86 24.12 c0.37 -1.11 0.74 -4.06 0.74 -6.77 l0 -4.80 -24 0 -24 0 0 -6.77 0 -6.77 20.31 0 20.31 0 0 -6.15 0 -6.15 -20.43 0 -20.31 0 0.37 -6.40 0.37 -6.52 22.52 -0.37 22.40 -0.25 0 -6.15 0 -6.15 -30.77 0 -30.77 0 0 32.62 0 32.62 31.26 0 c27.32 0 31.38 -0.25 32 -1.97z m125.66 -11.94 l0 -13.17 20.06 0 19.94 0 0 13.54 0 13.54 8 0 8 0 0 -32.62 0 -32.62 -8 0 -8 0 0 12.92 0 12.92 -19.69 0 -19.57 0 -0.37 -12.55 -0.37 -12.68 -8.25 -0.37 -8.37 -0.37 0 32.74 0 32.74 8.37 -0.37 8.25 -0.37 0 -13.29z m129.60 10.34 c8.62 -3.82 11.94 -8.62 11.94 -16.98 0 -11.69 -6.89 -15.88 -32 -19.45 -14.40 -2.09 -19.08 -4.06 -19.08 -8.12 0 -6.52 20.06 -7.88 34.83 -2.34 l7.14 2.71 4.06 -4.68 c4.92 -5.66 4.31 -6.52 -7.26 -10.22 -21.17 -6.65 -46.89 -2.95 -53.54 7.75 -4.31 7.14 -2.46 16.49 4.06 20.80 4.31 2.71 14.52 5.42 27.32 7.02 13.54 1.72 17.11 3.20 17.60 7.63 0.62 5.54 -4.92 7.51 -19.32 6.89 -9.97 -0.37 -13.05 -0.98 -19.20 -3.94 l-7.26 -3.57 -4.06 4.68 c-2.22 2.58 -3.69 5.17 -3.32 5.78 1.23 1.85 10.22 5.91 17.48 7.75 11.08 2.83 32.37 1.85 40.62 -1.72z m45.78 -7.38 l0 -10.83 16.37 -0.62 c11.45 -0.49 17.72 -1.23 21.17 -2.71 18.83 -8 18.34 -30.65 -0.98 -37.17 -5.17 -1.85 -10.71 -2.22 -29.78 -2.34 l-23.38 0 0.12 3.45 c0 1.85 0.12 16.37 0.25 32.25 l0.25 28.92 8 0 8 0 0 -10.95z m129.72 8.25 c0.37 -1.60 0.74 -4.68 0.74 -6.77 l0 -4.06 -24 0 -24 0 0 -6.77 0 -6.77 20.31 0 20.31 0 0 -6.15 0 -6.15 -20.31 0 -20.31 0 0 -6.15 0 -6.15 22.77 0 22.77 0 0 -6.77 0 -6.77 -30.77 0 -30.77 0 0 32.62 0 32.62 31.26 0 31.26 0 0.74 -2.71z m81.97 -4.06 l0 -6.77 -23.88 0 -23.75 0 0.12 -6.77 0 -6.77 20.06 0 20.06 0 0 -6.15 0 -6.15 -19.94 -0.25 -20.06 -0.37 -0.37 -5.78 -0.37 -5.91 22.77 0 22.89 0 0 -6.77 0 -6.77 -30.77 0 -30.77 0 0 31.75 c0 17.48 0.37 32.25 0.86 32.62 0.37 0.49 14.77 0.86 32 0.86 l31.14 0 0 -6.77z m70.77 3.69 c13.29 -4.68 20.31 -11.94 22.77 -23.75 4.06 -18.34 -8 -33.48 -29.66 -37.17 -4.31 -0.74 -16.49 -1.23 -26.95 -0.98 l-19.08 0.37 -0.37 30.77 c-0.12 16.86 0 31.51 0.37 32.49 0.98 2.58 44.55 1.23 52.92 -1.72z m-243.94 -141.54 c23.26 -3.45 41.11 -11.32 53.29 -23.51 13.42 -13.29 20.68 -34.09 17.97 -51.20 -1.85 -12.68 -5.91 -18.46 -15.88 -23.38 l-8.37 -4.06 -60.92 -0.62 -60.92 -0.62 0.25 -5.29 c0.25 -6.52 2.71 -10.58 8.12 -13.42 3.57 -2.09 9.97 -2.22 81.72 -2.58 l77.78 -0.37 13.66 -20.18 13.66 -20.31 -110.03 0 c-104.86 0 -110.40 0.12 -119.38 2.34 -23.63 6.15 -38.28 19.69 -45.91 42.58 -2.83 8.74 -3.20 11.20 -2.71 22.77 0.62 14.89 2.58 20.06 10.71 27.45 9.48 8.49 10.83 8.74 77.91 9.48 43.45 0.49 60.31 0.98 61.42 2.09 2.34 2.34 0.12 10.22 -4.06 14.03 -1.97 1.97 -5.66 4.06 -8.12 4.80 -6.52 1.72 -171.57 1.72 -178.09 -0.12 -14.77 -4.18 -20.55 -22.28 -12.55 -39.63 2.83 -6.15 30.28 -49.97 45.17 -72.25 11.32 -16.86 20.06 -23.26 39.14 -28.68 9.35 -2.58 10.71 -2.71 134.77 -3.08 l125.17 -0.37 6.52 -8.86 c15.51 -21.05 20.31 -27.57 22.40 -30.77 l2.09 -3.32 -242.46 0 -242.46 0 -11.20 21.66 c-6.15 11.82 -11.20 21.78 -11.20 22.03 0 0.37 29.91 0.74 66.34 0.86 l66.46 0.37 -5.17 8.12 c-2.83 4.43 -16 24.98 -29.17 45.78 -27.82 43.82 -30.40 47.75 -60.06 94.15 -12.31 19.20 -22.40 35.08 -22.40 35.45 0 0.25 70.77 0.49 157.29 0.49 131.94 0 159.14 -0.25 169.23 -1.85z"/>
  <path d="M730.71 685.78 c-0.37 -0.49 0.37 -2.71 1.48 -5.05 l2.22 -4.06 2.58 4.31 c1.35 2.34 2.22 4.68 1.85 5.05 -1.11 1.11 -7.51 0.86 -8.12 -0.25z"/>
  <path d="M791.38 678.15 c0 -3.57 0.25 -3.69 5.29 -3.69 6.15 0 10.22 2.34 9.11 5.42 -0.62 1.48 -2.46 1.97 -7.63 1.97 -6.65 0 -6.77 0 -6.77 -3.69z"/>
  <path d="M834.46 588.31 l0 -8.62 14.52 0 c13.66 0 14.77 0.12 17.23 2.83 4.55 4.92 2.95 10.71 -3.57 13.05 -2.22 0.74 -9.35 1.35 -16 1.35 l-12.18 0 0 -8.62z"/>
  <path d="M1080.62 598.65 l0 -19.20 15.14 0.49 c13.78 0.37 15.63 0.62 19.69 3.45 12.18 8.25 10.71 24.86 -2.83 31.75 -4.68 2.34 -7.38 2.71 -18.71 2.71 l-13.29 0 0 -19.20z"/>
 </g>
</svg>